<svg xmlns="http://www.w3.org/2000/svg" version="1.1" xmlns:xlink="http://www.w3.org/1999/xlink" xmlns:svgjs="http://svgjs.com/svgjs" width="1440" height="250" preserveAspectRatio="none" viewBox="0 0 1440 250"><g mask="url(&quot;#SvgjsMask1000&quot;)" fill="none"><path d="M27 250L277 0L557.5 0L307.5 250z" fill="url(#SvgjsLinearGradient1001)"></path><path d="M268.6 250L518.6 0L782.6 0L532.6 250z" fill="url(#SvgjsLinearGradient1001)"></path><path d="M494.20000000000005 250L744.2 0L949.7 0L699.7 250z" fill="url(#SvgjsLinearGradient1001)"></path><path d="M756.8000000000001 250L1006.8000000000001 0L1054.8000000000002 0L804.8000000000001 250z" fill="url(#SvgjsLinearGradient1001)"></path><path d="M1393 250L1143 0L1048.5 0L1298.5 250z" fill="url(#SvgjsLinearGradient1002)"></path><path d="M1180.4 250L930.4000000000001 0L687.4000000000001 0L937.4000000000001 250z" fill="url(#SvgjsLinearGradient1002)"></path><path d="M950.8 250L700.8 0L477.29999999999995 0L727.3 250z" fill="url(#SvgjsLinearGradient1002)"></path><path d="M717.1999999999999 250L467.19999999999993 0L428.19999999999993 0L678.1999999999999 250z" fill="url(#SvgjsLinearGradient1002)"></path><path d="M1225.3367401547002 250L1440 35.336740154700124L1440 250z" fill="url(#SvgjsLinearGradient1001)"></path><path d="M0 250L214.66325984529988 250L 0 35.336740154700124z" fill="url(#SvgjsLinearGradient1002)"></path></g><defs><mask id="SvgjsMask1000"><rect width="1440" height="250" fill="#ffffff"></rect></mask><linearGradient x1="0%" y1="100%" x2="100%" y2="0%" id="SvgjsLinearGradient1001"><stop stop-color="rgba(14, 109, 253, 1)" offset="0"></stop><stop stop-opacity="0" stop-color="rgba(14, 109, 253, 1)" offset="0.66"></stop></linearGradient><linearGradient x1="100%" y1="100%" x2="0%" y2="0%" id="SvgjsLinearGradient1002"><stop stop-color="rgba(14, 109, 253, 1)" offset="0"></stop><stop stop-opacity="0" stop-color="rgba(14, 109, 253, 1)" offset="0.66"></stop></linearGradient></defs></svg>